<svg id="Layer_1" data-name="Layer 1" xmlns="http://www.w3.org/2000/svg" viewBox="0 0 1146.33 785.25"><defs><style>.cls-1{fill:#fff;}.cls-2{fill:#b3e5fc;}.cls-3{fill:#1bae9f;}.cls-4{fill:#ffc107;}.cls-5{fill:#eee;}.cls-6,.cls-8,.cls-9{fill:none;stroke:#8e8e8e;stroke-linecap:round;}.cls-6{stroke-miterlimit:10;}.cls-6,.cls-8{stroke-width:2px;}.cls-7{fill:#8e8e8e;}.cls-8,.cls-9{stroke-linejoin:round;}.cls-9{stroke-width:1.88px;}</style></defs><rect class="cls-1" width="1146.33" height="785.25"/><rect class="cls-2" x="42.91" y="420.06" width="1049.57" height="77.78" rx="4"/><rect class="cls-3" x="528.45" y="81.42" width="78.49" height="34.99" rx="4"/><path class="cls-1" d="M553.24,99.39V104H551V92.56h4.13c2.29,0,4.29.85,4.29,3.44a3,3,0,0,1-2.52,3.07l3.2,4.93h-2.38l-3-4.61Zm0-1.53h1.85c1.28,0,2.2-.48,2.2-1.87s-1-1.73-2.2-1.73h-1.85Z"/><path class="cls-1" d="M565.18,104.16a4.36,4.36,0,0,1-4.59-4.38,4.42,4.42,0,0,1,4.61-4.33,4.31,4.31,0,0,1,4.53,4.41,4.17,4.17,0,0,1-2.77,4A5,5,0,0,1,565.18,104.16Zm0-1.53c1.72,0,2.39-1.38,2.39-2.87S566.83,97,565.2,97s-2.39,1.38-2.39,2.89a2.66,2.66,0,0,0,1.33,2.52A2.39,2.39,0,0,0,565.2,102.63Z"/><path class="cls-1" d="M574.91,104.16a4.36,4.36,0,0,1-4.6-4.38,4.43,4.43,0,0,1,4.62-4.33,4.3,4.3,0,0,1,4.52,4.41,4.16,4.16,0,0,1-2.76,4A5,5,0,0,1,574.91,104.16Zm0-1.53c1.71,0,2.38-1.38,2.38-2.87S576.56,97,574.93,97s-2.39,1.38-2.39,2.89a2.66,2.66,0,0,0,1.33,2.52A2.33,2.33,0,0,0,574.93,102.63Z"/><path class="cls-1" d="M583.75,104.14a2.28,2.28,0,0,1-2.58-2.49V97.1h-1.11V95.63h1.11V93.91l2-.87v2.59H585V97.1h-1.84v4.37c0,.66.28,1.06,1,1.06a2.81,2.81,0,0,0,.94-.16v1.57a6.38,6.38,0,0,1-.66.15A3.78,3.78,0,0,1,583.75,104.14Z"/><rect class="cls-3" x="529.74" y="156.02" width="78.49" height="34.99" rx="4"/><path class="cls-1" d="M548.16,167.17v11.44H546V167.17Z"/><path class="cls-1" d="M554.54,178.76c-2.06,0-3.92-.73-4.54-2.86l1.81-.78a2.62,2.62,0,0,0,2.73,2c1.06,0,2.15-.57,2.15-1.74,0-2.92-6.42-.36-6.42-5.08,0-2.19,2-3.32,4-3.32a4.23,4.23,0,0,1,4.22,2.54l-1.7.73a2.73,2.73,0,0,0-2.52-1.62c-.95,0-1.95.39-1.95,1.5,0,2.87,6.46.32,6.46,5.07a3.48,3.48,0,0,1-2.7,3.31A5.51,5.51,0,0,1,554.54,178.76Z"/><path class="cls-1" d="M565.94,178.76a5.6,5.6,0,0,1-5.85-5.93,5.66,5.66,0,0,1,5.85-5.83,5.93,5.93,0,0,1,2.36,11.32A6.2,6.2,0,0,1,565.94,178.76Zm0-1.76c2.46,0,3.49-2,3.49-4.2s-1.16-4.05-3.52-4.05c-2.53,0-3.55,1.92-3.55,4.19a4,4,0,0,0,2,3.73A3.27,3.27,0,0,0,566,177Z"/><path class="cls-1" d="M581.16,181h-1.73a11,11,0,0,1,0-14.75h1.73a11.88,11.88,0,0,0-2.6,7.38,11.35,11.35,0,0,0,1.49,5.67A15.42,15.42,0,0,0,581.16,181Z"/><path class="cls-1" d="M586.38,167.17v11.44h-2.2v-9.29l-2.41,1.53v-1.91l2.68-1.77Z"/><path class="cls-1" d="M589.87,180.94h-1.71a12.13,12.13,0,0,0,0-14.75h1.71a11.29,11.29,0,0,1,2.77,7.38,10.71,10.71,0,0,1-.72,3.93A12.25,12.25,0,0,1,589.87,180.94Z"/><rect class="cls-2" x="332.32" y="156.02" width="137.93" height="34.99" rx="4"/><path d="M371.46,178.76c-3.71,0-5.7-2.36-5.7-5.93a5.55,5.55,0,0,1,5.63-5.84,5.05,5.05,0,0,1,4.9,3.1l-1.82.77a3.18,3.18,0,0,0-3-2.14c-2.42,0-3.41,2.1-3.41,4.22s1.06,4.05,3.46,4.05a3.24,3.24,0,0,0,3.11-2.29l1.76.76a4.72,4.72,0,0,1-3.34,3.09A6.18,6.18,0,0,1,371.46,178.76Z"/><path d="M383.2,178.76c-3.71,0-5.7-2.36-5.7-5.93a5.55,5.55,0,0,1,5.63-5.84,5,5,0,0,1,4.9,3.1l-1.82.77a3.18,3.18,0,0,0-3-2.14c-2.42,0-3.41,2.1-3.41,4.22s1.07,4.05,3.46,4.05a3.24,3.24,0,0,0,3.11-2.29l1.76.76a4.72,4.72,0,0,1-3.33,3.09A6.32,6.32,0,0,1,383.2,178.76Z"/><path d="M392.11,167.17v11.44H389.9V167.17Z"/><path d="M399.15,168.9v9.71H397V168.9h-3.2v-1.73h8.59v1.73Z"/><path d="M408.42,168.9v9.71h-2.21V168.9H403v-1.73h8.58v1.73Z"/><path d="M420.71,181H419a11,11,0,0,1,0-14.75h1.73a11.88,11.88,0,0,0-2.6,7.38,11.35,11.35,0,0,0,1.49,5.67A15.42,15.42,0,0,0,420.71,181Z"/><path d="M426.5,178.76A4.52,4.52,0,0,1,422,175.5a8.86,8.86,0,0,1-.36-2.89c0-3,1.61-5.61,4.9-5.61,3.62,0,4.86,3,4.86,6.14a6.36,6.36,0,0,1-1.18,3.94,4.33,4.33,0,0,1-1.51,1.23A4.92,4.92,0,0,1,426.5,178.76Zm0-1.72c2.5,0,2.62-2.61,2.62-4.47,0-1.71-.51-3.85-2.65-3.85-2.49,0-2.68,2.57-2.68,4.45a5.55,5.55,0,0,0,.54,2.6,2.29,2.29,0,0,0,1.21,1.1A2.57,2.57,0,0,0,426.54,177Z"/><path d="M434,180.94h-1.72a12.13,12.13,0,0,0,0-14.75H434a11.29,11.29,0,0,1,2.77,7.38,10.71,10.71,0,0,1-.72,3.93A12.25,12.25,0,0,1,434,180.94Z"/><rect class="cls-2" x="643.49" y="156.02" width="186.4" height="34.99" rx="4"/><path d="M661.64,178.75a3.85,3.85,0,0,1-1.81-.34V176.7a3.71,3.71,0,0,0,1.47.29c1.25,0,1.71-.77,1.71-1.92v-7.9h2.21v7.93a3.79,3.79,0,0,1-.89,2.69A3.51,3.51,0,0,1,661.64,178.75Z"/><path d="M672.82,178.76a5.6,5.6,0,0,1-5.85-5.93,5.66,5.66,0,0,1,5.85-5.83,5.93,5.93,0,0,1,2.36,11.32A6.2,6.2,0,0,1,672.82,178.76Zm0-1.76c2.46,0,3.49-2,3.49-4.2s-1.16-4.05-3.52-4.05c-2.53,0-3.55,1.92-3.55,4.19a4,4,0,0,0,2,3.73A3.29,3.29,0,0,0,672.85,177Z"/><path d="M682.8,167.17v11.44h-2.21V167.17Z"/><path d="M687.33,169.9v8.71h-2V167.17H688l5,8.17v-8.17h2v11.44h-2.28Z"/><path d="M701.87,168.9v9.71h-2.21V168.9h-3.19v-1.73h8.58v1.73Z"/><path d="M709.59,173.31V175h-3.9v-1.65Z"/><path d="M713.9,167.17v11.44h-2.21V167.17Z"/><path d="M720.27,178.76c-2.06,0-3.91-.73-4.54-2.86l1.82-.78a2.6,2.6,0,0,0,2.72,2c1.07,0,2.16-.57,2.16-1.74,0-2.92-6.42-.36-6.42-5.08,0-2.19,2-3.32,4-3.32a4.22,4.22,0,0,1,4.22,2.54l-1.69.73a2.74,2.74,0,0,0-2.53-1.62c-.95,0-1.95.39-1.95,1.5,0,2.87,6.46.32,6.46,5.07a3.47,3.47,0,0,1-2.69,3.31A5.57,5.57,0,0,1,720.27,178.76Z"/><path d="M731.67,178.76a5.6,5.6,0,0,1-5.85-5.93,5.66,5.66,0,0,1,5.85-5.83A5.93,5.93,0,0,1,734,178.32,6.2,6.2,0,0,1,731.67,178.76Zm0-1.76c2.46,0,3.49-2,3.49-4.2s-1.16-4.05-3.52-4.05c-2.53,0-3.55,1.92-3.55,4.19a4,4,0,0,0,2,3.73A3.32,3.32,0,0,0,731.7,177Z"/><path d="M742.87,173.31V175H739v-1.65Z"/><path d="M750,178.76c-3.71,0-5.7-2.36-5.7-5.93a5.55,5.55,0,0,1,5.63-5.84,5.05,5.05,0,0,1,4.9,3.1l-1.82.77a3.18,3.18,0,0,0-3-2.14c-2.42,0-3.41,2.1-3.41,4.22s1.06,4.05,3.46,4.05a3.24,3.24,0,0,0,3.11-2.29l1.76.76a4.72,4.72,0,0,1-3.34,3.09A6.18,6.18,0,0,1,750,178.76Z"/><path d="M761.75,178.76c-3.71,0-5.7-2.36-5.7-5.93a5.55,5.55,0,0,1,5.63-5.84,5.07,5.07,0,0,1,4.91,3.1l-1.83.77a3.18,3.18,0,0,0-3-2.14c-2.42,0-3.41,2.1-3.41,4.22s1.07,4.05,3.47,4.05a3.24,3.24,0,0,0,3.1-2.29l1.76.76a4.72,4.72,0,0,1-3.33,3.09A6.32,6.32,0,0,1,761.75,178.76Z"/><path d="M770.66,167.17v11.44h-2.21V167.17Z"/><path d="M777.7,168.9v9.71h-2.2V168.9h-3.2v-1.73h8.59v1.73Z"/><path d="M787,168.9v9.71h-2.21V168.9h-3.19v-1.73h8.59v1.73Z"/><path d="M799.26,181h-1.73a11,11,0,0,1,0-14.75h1.73a11.88,11.88,0,0,0-2.6,7.38,11.35,11.35,0,0,0,1.49,5.67A15.42,15.42,0,0,0,799.26,181Z"/><path d="M808,176.91v1.7h-8.38v-.86l4.35-4.07a4.81,4.81,0,0,0,1.75-3.25,1.55,1.55,0,0,0-1.71-1.73c-1.29,0-2,1-2.27,2.16l-1.69-.73a3.84,3.84,0,0,1,4-3.13c2.13,0,3.82,1.15,3.82,3.4a5.71,5.71,0,0,1-2.23,4.13L803,176.91Z"/><path d="M810.61,180.94H808.9a12.13,12.13,0,0,0,0-14.75h1.71a11.29,11.29,0,0,1,2.77,7.38,10.71,10.71,0,0,1-.72,3.93A12,12,0,0,1,810.61,180.94Z"/><rect class="cls-2" x="42.91" y="224.07" width="186.4" height="34.99" rx="4"/><path d="M85.09,246.81c-2.06,0-3.91-.73-4.54-2.86l1.81-.78a2.62,2.62,0,0,0,2.73,2c1.06,0,2.16-.56,2.16-1.73,0-2.92-6.43-.37-6.43-5.09,0-2.18,2-3.31,4-3.31a4.22,4.22,0,0,1,4.22,2.53l-1.7.74a2.73,2.73,0,0,0-2.52-1.62c-1,0-2,.39-2,1.49,0,2.88,6.46.32,6.46,5.07a3.49,3.49,0,0,1-2.7,3.32A5.51,5.51,0,0,1,85.09,246.81Z"/><path d="M95.57,236.94v9.71H93.36v-9.71H90.17v-1.72h8.58v1.72Z"/><path d="M101.81,244l-.84,2.64H98.89l3.84-11.43h2.86l3.82,11.43h-2.27l-.85-2.64Zm.51-1.58h3.47L104.05,237Z"/><path d="M113,238v8.7h-2V235.22h2.63l5,8.17v-8.17h2v11.43h-2.28Z"/><path d="M126.83,246.65H123V235.22h3.85c3.75,0,6,1.95,6,5.74,0,2.77-1.33,4.6-3.52,5.33A8,8,0,0,1,126.83,246.65Zm-1.61-1.72h1.56c2.68,0,3.75-1.57,3.75-4.08s-1.15-3.92-3.78-3.92h-1.53Z"/><path d="M136.41,244l-.84,2.64h-2.08l3.84-11.43h2.86L144,246.65h-2.27l-.85-2.64Zm.51-1.58h3.47L138.65,237Z"/><path d="M147.79,242v4.61h-2.22V235.22h4.14c2.29,0,4.29.84,4.29,3.43a3,3,0,0,1-2.53,3.07l3.21,4.93H152.3l-3-4.61Zm0-1.53h1.85c1.29,0,2.21-.48,2.21-1.87s-1-1.73-2.21-1.73h-1.85Z"/><path d="M160.06,246.65h-3.83V235.22h3.84c3.75,0,6,1.95,6,5.74,0,2.77-1.33,4.6-3.52,5.33A8.07,8.07,0,0,1,160.06,246.65Zm-1.61-1.72H160c2.68,0,3.75-1.57,3.75-4.08s-1.14-3.92-3.78-3.92h-1.52Z"/><path d="M175.45,249h-1.73a11,11,0,0,1,0-14.75h1.73a11.9,11.9,0,0,0-2.59,7.38,11.34,11.34,0,0,0,1.48,5.67A17,17,0,0,0,175.45,249Z"/><path d="M181.24,246.81a4.5,4.5,0,0,1-4.53-3.26,8.89,8.89,0,0,1-.36-2.9c0-3,1.6-5.6,4.89-5.6,3.62,0,4.87,3,4.87,6.13a6.43,6.43,0,0,1-1.18,3.95,4.37,4.37,0,0,1-1.52,1.23A4.92,4.92,0,0,1,181.24,246.81Zm0-1.73c2.5,0,2.61-2.61,2.61-4.46s-.51-3.86-2.65-3.86c-2.49,0-2.68,2.58-2.68,4.46a5.67,5.67,0,0,0,.54,2.6,2.29,2.29,0,0,0,1.21,1.1A2.63,2.63,0,0,0,181.29,245.08Z"/><path d="M188.74,249H187a12.13,12.13,0,0,0,0-14.75h1.71a11.24,11.24,0,0,1,2.77,7.37,10.68,10.68,0,0,1-.72,3.93A11.93,11.93,0,0,1,188.74,249Z"/><rect class="cls-3" x="42.91" y="553.78" width="186.4" height="34.99" rx="4"/><path class="cls-1" d="M106.6,567.65v8.72h-2V564.93h2.8l3.29,8.34,3.26-8.34h2.74v11.44h-2v-8.72l-3.59,8.72h-1Z"/><path class="cls-1" d="M121.43,564.93v11.44h-2.21V564.93Z"/><path class="cls-1" d="M128.76,576.37H124V564.93h4.49c2.1,0,3.8.66,3.8,3a2.34,2.34,0,0,1-1.84,2.43,2.53,2.53,0,0,1,2.32,2.77,2.85,2.85,0,0,1-2.44,3A6.83,6.83,0,0,1,128.76,576.37Zm-2.63-6.64h2.06c1.24,0,1.94-.37,1.94-1.71s-.88-1.54-2-1.54h-2Zm0,5.08h2.35c1.29,0,2.07-.5,2.07-1.85s-1-1.76-2.21-1.76h-2.21Z"/><path class="cls-1" d="M138.05,571.07v1.65h-3.89v-1.65Z"/><path class="cls-1" d="M147.27,574.67v1.7h-8.38v-.85l4.34-4.08a4.76,4.76,0,0,0,1.76-3.25,1.55,1.55,0,0,0-1.71-1.73c-1.29,0-2,1-2.27,2.17l-1.7-.74a3.85,3.85,0,0,1,4.06-3.12c2.13,0,3.82,1.14,3.82,3.39a5.75,5.75,0,0,1-2.23,4.13l-2.71,2.38Z"/><path class="cls-1" d="M156.67,578.74H155A10.94,10.94,0,0,1,155,564h1.72a11.88,11.88,0,0,0-2.59,7.37,11.28,11.28,0,0,0,1.48,5.67A18.36,18.36,0,0,0,156.67,578.74Z"/><path class="cls-1" d="M161.9,564.93v11.44h-2.2v-9.28l-2.41,1.52V566.7l2.68-1.77Z"/><path class="cls-1" d="M165.38,578.7h-1.71a12.13,12.13,0,0,0,0-14.75h1.71a11.3,11.3,0,0,1,2.78,7.38,10.92,10.92,0,0,1-.72,3.93A12.29,12.29,0,0,1,165.38,578.7Z"/><rect class="cls-3" x="42.91" y="637.49" width="186.4" height="34.99" rx="4"/><path class="cls-1" d="M99.43,660.23c-2.07,0-3.92-.74-4.54-2.86l1.81-.78a2.62,2.62,0,0,0,2.73,2c1.06,0,2.15-.56,2.15-1.73,0-2.92-6.42-.37-6.42-5.09,0-2.18,2-3.31,4-3.31a4.22,4.22,0,0,1,4.21,2.53l-1.69.74a2.73,2.73,0,0,0-2.52-1.62c-1,0-2,.39-2,1.49,0,2.88,6.46.32,6.46,5.07A3.46,3.46,0,0,1,101,660,5.18,5.18,0,0,1,99.43,660.23Z"/><path class="cls-1" d="M110.2,655.21v4.86H108v-4.86l-3.73-6.58h2.44l2.48,4.77,2.41-4.77h2.15Z"/><path class="cls-1" d="M118.79,660.23c-2.07,0-3.92-.74-4.54-2.86l1.81-.78a2.62,2.62,0,0,0,2.73,2c1.06,0,2.15-.56,2.15-1.73,0-2.92-6.42-.37-6.42-5.09,0-2.18,2-3.31,4-3.31a4.22,4.22,0,0,1,4.21,2.53l-1.69.74a2.73,2.73,0,0,0-2.52-1.62c-1,0-2,.39-2,1.49,0,2.88,6.46.32,6.46,5.07a3.46,3.46,0,0,1-2.69,3.31A5.18,5.18,0,0,1,118.79,660.23Z"/><path class="cls-1" d="M129.26,650.36v9.71h-2.2v-9.71h-3.2v-1.73h8.59v1.73Z"/><path class="cls-1" d="M141.86,658.35v1.72H134V648.63h7.58v1.73h-5.36v3.07h4.36v1.63h-4.36v3.29Z"/><path class="cls-1" d="M145.62,651.35v8.72h-2V648.63h2.8l3.29,8.34,3.26-8.34h2.74v11.44h-2.05v-8.72l-3.59,8.72h-1Z"/><path class="cls-1" d="M165.69,662.44H164a10.94,10.94,0,0,1,0-14.75h1.72a11.88,11.88,0,0,0-2.59,7.37,11.35,11.35,0,0,0,1.48,5.68A17,17,0,0,0,165.69,662.44Z"/><path class="cls-1" d="M170.92,648.63v11.44h-2.2v-9.28l-2.41,1.52v-1.9l2.68-1.78Z"/><path class="cls-1" d="M174.4,662.41h-1.71a12.13,12.13,0,0,0,0-14.75h1.71a11.25,11.25,0,0,1,2.78,7.37,10.88,10.88,0,0,1-.72,3.93A12.2,12.2,0,0,1,174.4,662.41Z"/><rect class="cls-3" x="42.91" y="721.19" width="186.4" height="34.99" rx="4"/><path class="cls-1" d="M105.91,743.93c-2.06,0-3.91-.73-4.54-2.86l1.81-.78a2.62,2.62,0,0,0,2.73,2c1.06,0,2.16-.56,2.16-1.74,0-2.92-6.43-.36-6.43-5.08,0-2.19,2-3.31,4-3.31a4.22,4.22,0,0,1,4.22,2.53l-1.7.73a2.73,2.73,0,0,0-2.52-1.62c-1,0-2,.39-2,1.5,0,2.87,6.46.32,6.46,5.07a3.46,3.46,0,0,1-2.7,3.31A5.13,5.13,0,0,1,105.91,743.93Z"/><path class="cls-1" d="M119.3,735.41l-4.59,11.23h-2l1.52-3.71L111,735.41h2.13l2.19,5.34,2-5.34Z"/><path class="cls-1" d="M123.47,743.93c-1.46,0-3-.5-3.55-2l1.53-.64a2.05,2.05,0,0,0,2,1.21c.71,0,1.52-.21,1.52-1.07,0-1.82-4.86-.37-4.86-3.67,0-1.71,1.67-2.53,3.19-2.53a3.49,3.49,0,0,1,3.38,1.81l-1.49.64a2,2,0,0,0-1.89-1c-.59,0-1.32.26-1.32,1,0,1.75,4.89.27,4.89,3.59a2.5,2.5,0,0,1-2.12,2.56A5.46,5.46,0,0,1,123.47,743.93Z"/><path class="cls-1" d="M132.38,743.78h-3.83V732.34h3.84c3.75,0,6,1.95,6,5.74,0,2.78-1.33,4.6-3.52,5.33A8.07,8.07,0,0,1,132.38,743.78Zm-1.61-1.73h1.55c2.68,0,3.75-1.57,3.75-4.08s-1.14-3.92-3.78-3.92h-1.52Z"/><path class="cls-1" d="M143.82,743.93a4.06,4.06,0,0,1-4.29-4.36,4.11,4.11,0,0,1,4.19-4.34c2.9,0,4,2,4,4.61v.2h-6.17a2.23,2.23,0,0,0,2.3,2.44,2.2,2.2,0,0,0,2.12-1.22l1.56.7a3.41,3.41,0,0,1-2.58,1.87A6.27,6.27,0,0,1,143.82,743.93Zm-2.23-5.21h4.16c-.07-1.27-.68-2-2-2a2,2,0,0,0-1.9,1.23A3,3,0,0,0,141.59,738.72Z"/><path class="cls-1" d="M152.22,743.93c-1.46,0-3-.5-3.55-2l1.53-.64a2.05,2.05,0,0,0,2,1.21c.71,0,1.52-.21,1.52-1.07,0-1.82-4.86-.37-4.86-3.67,0-1.71,1.67-2.53,3.19-2.53a3.49,3.49,0,0,1,3.38,1.81l-1.49.64a2,2,0,0,0-1.89-1c-.59,0-1.32.26-1.32,1,0,1.75,4.89.27,4.89,3.59a2.5,2.5,0,0,1-2.12,2.56A5.46,5.46,0,0,1,152.22,743.93Z"/><path class="cls-1" d="M160.81,743.93a4,4,0,0,1-4.22-4.36,4.16,4.16,0,0,1,4.27-4.34,3.71,3.71,0,0,1,3.77,2.35l-1.62.71a2.16,2.16,0,0,0-2.13-1.47c-1.66,0-2.24,1.42-2.24,2.85s.63,2.75,2.29,2.75a2.21,2.21,0,0,0,2.21-1.68l1.54.67a3.51,3.51,0,0,1-2.6,2.38A5.26,5.26,0,0,1,160.81,743.93Z"/><path class="cls-1" d="M168.19,739.46v4.32h-2v-8.37h2V737a2.82,2.82,0,0,1,2.74-1.69v1.85c-1.24,0-2.14.29-2.54,1.2A2.81,2.81,0,0,0,168.19,739.46Z"/><rect class="cls-4" x="58.43" y="441.45" width="186.4" height="34.99" rx="4"/><path d="M100.88,464H97.05V452.6h3.85c3.75,0,6,1.95,6,5.74,0,2.77-1.33,4.6-3.52,5.33A8,8,0,0,1,100.88,464Zm-1.61-1.73h1.56c2.68,0,3.75-1.57,3.75-4.08s-1.15-3.92-3.78-3.92H99.27Z"/><path d="M111,452.6V464h-2.21V452.6Z"/><path d="M115.78,459.43V464h-2.22V452.6h4.13c2.29,0,4.29.84,4.29,3.44a3,3,0,0,1-2.52,3.07l3.2,4.93h-2.37l-3-4.61Zm0-1.53h1.85c1.28,0,2.2-.49,2.2-1.88s-1-1.73-2.2-1.73h-1.85Z"/><path d="M132.06,462.31V464h-7.84V452.6h7.58v1.73h-5.36v3.07h4.36V459h-4.36v3.28Z"/><path d="M138.86,464.19c-3.71,0-5.7-2.36-5.7-5.93a5.55,5.55,0,0,1,5.63-5.84,5.05,5.05,0,0,1,4.9,3.1l-1.82.77a3.18,3.18,0,0,0-3-2.14c-2.42,0-3.41,2.1-3.41,4.22s1.07,4.05,3.46,4.05a3.24,3.24,0,0,0,3.11-2.29l1.76.76a4.72,4.72,0,0,1-3.34,3.09A6.18,6.18,0,0,1,138.86,464.19Z"/><path d="M149.91,454.33V464h-2.2v-9.71h-3.2V452.6h8.59v1.73Z"/><path d="M159.67,464.19a5.6,5.6,0,0,1-5.85-5.93,5.66,5.66,0,0,1,5.85-5.83A5.93,5.93,0,0,1,162,463.75,6.2,6.2,0,0,1,159.67,464.19Zm0-1.76c2.46,0,3.49-2,3.49-4.2s-1.16-4.05-3.52-4.05c-2.53,0-3.55,1.92-3.55,4.19a4,4,0,0,0,2,3.73A3.32,3.32,0,0,0,159.7,462.43Z"/><path d="M169.58,459.43V464h-2.22V452.6h4.13c2.29,0,4.29.84,4.29,3.44a3,3,0,0,1-2.52,3.07l3.2,4.93h-2.38l-3-4.61Zm0-1.53h1.85c1.28,0,2.2-.49,2.2-1.88s-1-1.73-2.2-1.73h-1.85Z"/><path d="M182.78,459.17V464h-2.23v-4.87l-3.73-6.57h2.44l2.48,4.76,2.41-4.76h2.15Z"/><path d="M195.25,466.4h-1.73a11,11,0,0,1,0-14.75h1.73a11.88,11.88,0,0,0-2.6,7.38,11.35,11.35,0,0,0,1.49,5.67A15.42,15.42,0,0,0,195.25,466.4Z"/><path d="M200.47,452.6V464h-2.2v-9.29l-2.4,1.53v-1.91l2.68-1.77Z"/><path d="M204,466.37h-1.71a12.13,12.13,0,0,0,0-14.75H204a11.29,11.29,0,0,1,2.77,7.38,10.71,10.71,0,0,1-.72,3.93A12,12,0,0,1,204,466.37Z"/><rect class="cls-3" x="266.46" y="441.45" width="186.4" height="34.99" rx="4"/><path class="cls-1" d="M319.82,455.32V464h-2V452.6h2.8l3.29,8.33,3.26-8.33h2.74V464h-2.05v-8.72L324.28,464h-1Z"/><path class="cls-1" d="M337.59,464.19c-3.66,0-5.8-2.36-5.8-5.93a5.59,5.59,0,0,1,5.8-5.84,4.86,4.86,0,0,1,4.81,2.94l-1.85.8a3,3,0,0,0-3-2c-2.45,0-3.5,2.1-3.5,4.25s1.05,4.1,3.55,4.1a4.61,4.61,0,0,0,3-1v-1.74H337.8v-1.64h4.86v4.1a6.67,6.67,0,0,1-3.66,1.9A9.36,9.36,0,0,1,337.59,464.19Z"/><path class="cls-1" d="M346.54,455.32V464h-2V452.6h2.8l3.29,8.33,3.26-8.33h2.74V464h-2.05v-8.72L351,464h-1Z"/><path class="cls-1" d="M361.08,455.33V464h-2V452.6h2.63l5,8.17V452.6h2V464h-2.28Z"/><path class="cls-1" d="M375.62,454.33V464h-2.2v-9.71h-3.2V452.6h8.59v1.73Z"/><path class="cls-1" d="M387.91,466.4h-1.73a11,11,0,0,1,0-14.75h1.73a11.93,11.93,0,0,0-2.59,7.38,11.34,11.34,0,0,0,1.48,5.67A17,17,0,0,0,387.91,466.4Z"/><path class="cls-1" d="M396.69,462.34V464h-8.37v-.86l4.34-4.07a4.82,4.82,0,0,0,1.76-3.25,1.55,1.55,0,0,0-1.71-1.73c-1.29,0-2,1-2.28,2.16l-1.69-.73a3.84,3.84,0,0,1,4.05-3.13c2.14,0,3.82,1.15,3.82,3.4a5.73,5.73,0,0,1-2.22,4.13l-2.71,2.38Z"/><path class="cls-1" d="M399.26,466.37h-1.71a12.13,12.13,0,0,0,0-14.75h1.71A11.3,11.3,0,0,1,402,459a10.92,10.92,0,0,1-.72,3.93A12.29,12.29,0,0,1,399.26,466.37Z"/><rect class="cls-4" x="474.5" y="441.45" width="186.4" height="34.99" rx="4"/><path d="M504.37,462.31V464h-7.84V452.6h7.58v1.73h-5.36v3.07h4.36V459h-4.36v3.28Z"/><path d="M510.31,459.59,507.65,464H505.4l3.7-5.88-3.44-5.56h2.49l2.42,4,2.39-4h2.26l-3.38,5.51,3.67,5.93H513Z"/><path d="M519.45,459.72V464h-2.22V452.6h4c2.41,0,4.27,1,4.27,3.62,0,2.87-2.25,3.51-4.71,3.51h-1.31Zm0-1.59h1.73c1.37,0,2.14-.55,2.14-2s-.82-1.87-2.14-1.87h-1.73Z"/><path d="M535,462.31V464h-7.84V452.6h7.58v1.73h-5.36v3.07h4.36V459h-4.36v3.28Z"/><path d="M539,459.43V464h-2.22V452.6h4.13c2.29,0,4.29.84,4.29,3.44a3,3,0,0,1-2.52,3.07l3.2,4.93h-2.37l-3-4.61Zm0-1.53h1.85c1.28,0,2.2-.49,2.2-1.88s-1-1.73-2.2-1.73H539Z"/><path d="M549.68,452.6V464h-2.21V452.6Z"/><path d="M554.22,455.32V464h-2V452.6H555l3.29,8.33,3.26-8.33h2.74V464h-2v-8.72L558.67,464h-1Z"/><path d="M574.6,462.31V464h-7.84V452.6h7.57v1.73H569v3.07h4.36V459H569v3.28Z"/><path d="M578.36,455.33V464h-2V452.6H579l5,8.17V452.6h2V464h-2.28Z"/><path d="M592.9,454.33V464h-2.21v-9.71H587.5V452.6h8.58v1.73Z"/><path d="M599.14,461.4,598.3,464h-2.08l3.84-11.44h2.86L606.74,464h-2.27l-.86-2.64Zm.51-1.59h3.47l-1.74-5.42Z"/><path d="M615.56,462.31V464H608.3V452.6h2.22v9.71Z"/><path d="M624.72,466.4H623a11,11,0,0,1,0-14.75h1.72a11.93,11.93,0,0,0-2.59,7.38,11.44,11.44,0,0,0,1.48,5.67A17,17,0,0,0,624.72,466.4Z"/><path d="M629.65,464.19c-1.93,0-3.78-.88-4.25-2.86l1.67-.73a2.5,2.5,0,0,0,2.4,2c1.2,0,2.29-.52,2.29-1.85,0-1.89-1.49-1.83-2.94-1.83v-1.54c1.3,0,2.72.06,2.72-1.67a1.66,1.66,0,0,0-1.86-1.6,2.22,2.22,0,0,0-2.27,1.76l-1.62-.7a3.94,3.94,0,0,1,4-2.71c1.88,0,3.82,1,3.82,3.09a2.55,2.55,0,0,1-1.89,2.48,2.66,2.66,0,0,1,2.22,2.75,3.24,3.24,0,0,1-2.73,3.25A6.67,6.67,0,0,1,629.65,464.19Z"/><path d="M636.63,466.37h-1.71a12.13,12.13,0,0,0,0-14.75h1.71A11.29,11.29,0,0,1,639.4,459a10.71,10.71,0,0,1-.72,3.93A12,12,0,0,1,636.63,466.37Z"/><rect class="cls-4" x="682.53" y="441.45" width="186.4" height="34.99" rx="4"/><path d="M734.42,459.72V464H732.2V452.6h4c2.41,0,4.27,1,4.27,3.62,0,2.87-2.26,3.51-4.72,3.51h-1.3Zm0-1.59h1.73c1.37,0,2.13-.55,2.13-2s-.82-1.87-2.13-1.87h-1.73Z"/><path d="M744.32,459.43V464H742.1V452.6h4.14c2.29,0,4.29.84,4.29,3.44a3,3,0,0,1-2.53,3.07l3.21,4.93h-2.38l-3-4.61Zm0-1.53h1.85c1.29,0,2.21-.49,2.21-1.88s-1-1.73-2.21-1.73h-1.85Z"/><path d="M755.05,452.6V464h-2.21V452.6Z"/><path d="M766.92,452.6,763.05,464h-2.56l-3.85-11.44h2.29l3,9.21,3-9.21Z"/><path d="M770,461.4l-.83,2.64H767l3.85-11.44h2.85L777.56,464h-2.27l-.85-2.64Zm.51-1.59H774l-1.74-5.42Z"/><path d="M783.09,454.33V464h-2.2v-9.71h-3.2V452.6h8.59v1.73Z"/><path d="M795.69,462.31V464h-7.84V452.6h7.57v1.73h-5.36v3.07h4.36V459h-4.36v3.28Z"/><path d="M805,466.4h-1.73a11,11,0,0,1,0-14.75H805a11.87,11.87,0,0,0-2.59,7.38,11.34,11.34,0,0,0,1.48,5.67A15.42,15.42,0,0,0,805,466.4Z"/><path d="M813.18,461.62V464H811v-2.42h-5.71v-.83l5.08-8.19h2.78V460h1.53v1.62ZM807.64,460h3.42v-5.75Z"/><path d="M817,466.37h-1.71a12.13,12.13,0,0,0,0-14.75H817a11.3,11.3,0,0,1,2.78,7.38,10.92,10.92,0,0,1-.72,3.93A12.29,12.29,0,0,1,817,466.37Z"/><rect class="cls-4" x="890.57" y="441.45" width="186.4" height="34.99" rx="4"/><path d="M941.57,464.19c-2.07,0-3.92-.73-4.54-2.86l1.81-.78a2.62,2.62,0,0,0,2.73,2c1.06,0,2.15-.57,2.15-1.74,0-2.92-6.42-.36-6.42-5.08,0-2.19,2-3.32,4-3.32a4.21,4.21,0,0,1,4.21,2.54l-1.69.73a2.73,2.73,0,0,0-2.52-1.62c-1,0-2,.39-2,1.5,0,2.87,6.46.32,6.46,5.07a3.47,3.47,0,0,1-2.69,3.31A5.51,5.51,0,0,1,941.57,464.19Z"/><path d="M949.73,455.33V464h-2V452.6h2.62l5,8.17V452.6h2V464H955Z"/><path d="M961.76,455.32V464h-2V452.6h2.8l3.29,8.33,3.25-8.33h2.75V464H969.8v-8.72L966.21,464h-1Z"/><path d="M976.52,459.72V464H974.3V452.6h4c2.41,0,4.27,1,4.27,3.62,0,2.87-2.26,3.51-4.72,3.51h-1.3Zm0-1.59h1.73c1.37,0,2.14-.55,2.14-2s-.82-1.87-2.14-1.87h-1.73Z"/><path d="M997.07,452.6,993.19,464h-2.55l-3.86-11.44h2.29l3,9.21,3-9.21Z"/><path d="M1005.89,462.34V464h-8.38v-.86l4.34-4.07a4.78,4.78,0,0,0,1.76-3.25,1.55,1.55,0,0,0-1.71-1.73c-1.29,0-2,1-2.27,2.16l-1.7-.73a3.85,3.85,0,0,1,4.06-3.13c2.13,0,3.82,1.15,3.82,3.4a5.75,5.75,0,0,1-2.23,4.13l-2.71,2.38Z"/><path d="M1015.29,466.4h-1.72a10.94,10.94,0,0,1,0-14.75h1.72a11.93,11.93,0,0,0-2.59,7.38,11.34,11.34,0,0,0,1.48,5.67A17,17,0,0,0,1015.29,466.4Z"/><path d="M1020.74,464.19c-3.58,0-4.55-2.54-4.55-5.64s1.31-6.12,4.77-6.12a3.94,3.94,0,0,1,3.85,2.22l-1.7.73a2.15,2.15,0,0,0-2.1-1.27c-2.06,0-2.61,2.29-2.64,3.94a3.17,3.17,0,0,1,2.84-1.47,3.77,3.77,0,0,1,1.21,7.35A5.14,5.14,0,0,1,1020.74,464.19Zm0-1.59a2.26,2.26,0,1,0-2.19-2.37,2.22,2.22,0,0,0,1.25,2.19A2.28,2.28,0,0,0,1020.71,462.6Z"/><path d="M1027.58,466.37h-1.71a12.13,12.13,0,0,0,0-14.75h1.71a11.29,11.29,0,0,1,2.77,7.38,10.92,10.92,0,0,1-.71,3.93A12.29,12.29,0,0,1,1027.58,466.37Z"/><rect class="cls-2" x="330.32" y="224.07" width="186.4" height="34.99" rx="4"/><path d="M349.4,242v4.61h-2.22V235.22h4.13c2.29,0,4.29.84,4.29,3.43a3,3,0,0,1-2.52,3.07l3.2,4.93H353.9l-3-4.61Zm0-1.53h1.85c1.28,0,2.2-.48,2.2-1.87s-1-1.73-2.2-1.73H349.4Z"/><path d="M365.68,244.93v1.72h-7.85V235.22h7.58v1.72h-5.36V240h4.36v1.64h-4.36v3.28Z"/><path d="M372.58,246.81c-3.66,0-5.8-2.37-5.8-5.93a5.59,5.59,0,0,1,5.8-5.84A4.87,4.87,0,0,1,377.4,238l-1.86.8a3,3,0,0,0-3-2c-2.45,0-3.5,2.1-3.5,4.26s1.05,4.09,3.55,4.09a4.65,4.65,0,0,0,3-1v-1.75h-2.86V240.7h4.86v4.09a6.63,6.63,0,0,1-3.66,1.9A8.21,8.21,0,0,1,372.58,246.81Z"/><path d="M380.16,246.78a1.3,1.3,0,1,1,.52-.1A1.34,1.34,0,0,1,380.16,246.78Z"/><path d="M389.21,244l-.84,2.64h-2.08l3.84-11.43H393l3.82,11.43h-2.27l-.86-2.64Zm.51-1.58h3.47L391.45,237Z"/><path d="M402.65,246.81c-3,0-4.56-1.59-4.56-4.52v-7.07h2.22v6.9c0,1.71.39,2.93,2.34,2.93s2.48-1.27,2.48-3.05v-6.78h2.2v6.94a4.68,4.68,0,0,1-1.19,3.46A4.79,4.79,0,0,1,402.65,246.81Z"/><path d="M414.21,236.94v9.71H412v-9.71h-3.2v-1.72h8.59v1.72Z"/><path d="M421.18,241.8v4.85H419V235.22h2.21v4.84h5.26v-4.84h2.21v11.43h-2.21V241.8Z"/><path d="M436.37,246.81a5.6,5.6,0,0,1-5.85-5.93,5.66,5.66,0,0,1,5.85-5.83,5.93,5.93,0,0,1,2.36,11.32A6.2,6.2,0,0,1,436.37,246.81Zm0-1.76c2.46,0,3.5-2,3.5-4.2s-1.17-4.06-3.53-4.06c-2.53,0-3.54,1.93-3.54,4.2a4,4,0,0,0,2,3.73A3.45,3.45,0,0,0,436.4,245.05Z"/><path d="M446.28,242v4.61h-2.22V235.22h4.13c2.29,0,4.29.84,4.29,3.43a3,3,0,0,1-2.52,3.07l3.2,4.93h-2.37l-3-4.61Zm0-1.53h1.85c1.28,0,2.2-.48,2.2-1.87s-1-1.73-2.2-1.73h-1.85Z"/><path d="M457,235.22v11.43h-2.22V235.22Z"/><path d="M464,236.94v9.71h-2.2v-9.71h-3.19v-1.72h8.58v1.72Z"/><path d="M473.8,241.79v4.86h-2.22v-4.86l-3.74-6.57h2.45l2.47,4.76,2.41-4.76h2.15Z"/><path d="M486.27,249h-1.73a11,11,0,0,1,0-14.75h1.73a11.9,11.9,0,0,0-2.59,7.38,11.34,11.34,0,0,0,1.48,5.67A17,17,0,0,0,486.27,249Z"/><path d="M495.05,245v1.69h-8.37v-.85l4.34-4.08a4.8,4.8,0,0,0,1.76-3.25,1.55,1.55,0,0,0-1.71-1.72c-1.29,0-2,1-2.28,2.16l-1.69-.73a3.84,3.84,0,0,1,4-3.13c2.14,0,3.82,1.14,3.82,3.39a5.75,5.75,0,0,1-2.22,4.14L490,245Z"/><path d="M497.62,249h-1.71a12.13,12.13,0,0,0,0-14.75h1.71a11.25,11.25,0,0,1,2.78,7.37,10.88,10.88,0,0,1-.72,3.93A12.2,12.2,0,0,1,497.62,249Z"/><rect class="cls-2" x="617.73" y="224.07" width="186.4" height="34.99" rx="4"/><path d="M643.5,237.93v8.72h-2V235.22h2.79l3.29,8.33,3.26-8.33h2.74v11.43h-2.05v-8.72L648,246.65h-1Z"/><path d="M663.88,244.93v1.72H656V235.22h7.58v1.72h-5.36V240h4.36v1.64h-4.36v3.28Z"/><path d="M667.64,237.93v8.72h-2V235.22h2.79l3.29,8.33,3.26-8.33h2.74v11.43h-2v-8.72l-3.59,8.72h-1Z"/><path d="M685,246.65h-4.79V235.22h4.49c2.1,0,3.79.66,3.79,3a2.33,2.33,0,0,1-1.83,2.43,2.53,2.53,0,0,1,2.31,2.77,2.85,2.85,0,0,1-2.44,3A6.78,6.78,0,0,1,685,246.65ZM682.34,240h2.06c1.24,0,1.94-.36,1.94-1.71s-.88-1.54-2-1.54h-2Zm0,5.09h2.36c1.29,0,2.07-.51,2.07-1.85s-1-1.77-2.22-1.77h-2.21Z"/><path d="M698.6,244.93v1.72h-7.84V235.22h7.58v1.72H693V240h4.36v1.64H693v3.28Z"/><path d="M702.58,242v4.61h-2.22V235.22h4.14c2.28,0,4.28.84,4.28,3.43a3,3,0,0,1-2.52,3.07l3.2,4.93h-2.37l-3-4.61Zm0-1.53h1.85c1.28,0,2.21-.48,2.21-1.87s-1-1.73-2.21-1.73h-1.85Z"/><path d="M719.33,246.65h-4.8V235.22H719c2.1,0,3.79.66,3.79,3a2.33,2.33,0,0,1-1.83,2.43,2.53,2.53,0,0,1,2.31,2.77,2.86,2.86,0,0,1-2.44,3A6.78,6.78,0,0,1,719.33,246.65ZM716.7,240h2.06c1.24,0,1.94-.36,1.94-1.71s-.88-1.54-2-1.54h-2Zm0,5.09h2.36c1.29,0,2.07-.51,2.07-1.85s-1-1.77-2.22-1.77H716.7Z"/><path d="M730.35,246.81a5.6,5.6,0,0,1-5.85-5.93,5.66,5.66,0,0,1,5.85-5.83,5.93,5.93,0,0,1,2.36,11.32A6.2,6.2,0,0,1,730.35,246.81Zm0-1.76c2.46,0,3.49-2,3.49-4.2s-1.17-4.06-3.53-4.06c-2.53,0-3.54,1.93-3.54,4.2a4,4,0,0,0,2,3.73A3.39,3.39,0,0,0,730.39,245.05Z"/><path d="M741.87,246.65H738V235.22h3.85c3.75,0,6,1.95,6,5.74,0,2.77-1.33,4.6-3.52,5.33A8.07,8.07,0,0,1,741.87,246.65Zm-1.61-1.72h1.56c2.68,0,3.75-1.57,3.75-4.08s-1.15-3.92-3.79-3.92h-1.52Z"/><path d="M754.3,241.79v4.86h-2.23v-4.86l-3.73-6.57h2.44l2.48,4.76,2.41-4.76h2.15Z"/><path d="M766.77,249H765a11,11,0,0,1,0-14.75h1.73a11.84,11.84,0,0,0-2.59,7.38,11.34,11.34,0,0,0,1.48,5.67A15.42,15.42,0,0,0,766.77,249Z"/><path d="M775.55,245v1.69h-8.37v-.85l4.34-4.08a4.8,4.8,0,0,0,1.76-3.25,1.55,1.55,0,0,0-1.71-1.72c-1.29,0-2,1-2.28,2.16l-1.69-.73a3.84,3.84,0,0,1,4-3.13c2.13,0,3.82,1.14,3.82,3.39a5.75,5.75,0,0,1-2.22,4.14L770.53,245Z"/><path d="M778.12,249h-1.71a12.13,12.13,0,0,0,0-14.75h1.71a11.24,11.24,0,0,1,2.77,7.37,10.88,10.88,0,0,1-.71,3.93A12.2,12.2,0,0,1,778.12,249Z"/><rect class="cls-2" x="617.73" y="285.83" width="186.4" height="96.65" rx="4"/><path d="M672.65,320.2c-2.06,0-3.91-.74-4.54-2.86l1.82-.78a2.6,2.6,0,0,0,2.72,2c1.06,0,2.16-.56,2.16-1.73,0-2.92-6.42-.37-6.42-5.09,0-2.18,2-3.31,4-3.31a4.22,4.22,0,0,1,4.22,2.53l-1.69.74a2.75,2.75,0,0,0-2.53-1.62c-.95,0-1.95.39-1.95,1.49,0,2.88,6.46.32,6.46,5.07a3.45,3.45,0,0,1-2.7,3.31A5.13,5.13,0,0,1,672.65,320.2Z"/><path d="M683.13,310.33V320h-2.2v-9.71h-3.2V308.6h8.59v1.73Z"/><path d="M689.37,317.4l-.84,2.64h-2.08l3.84-11.44h2.86L697,320H694.7l-.85-2.64Zm.51-1.58h3.47l-1.74-5.43Z"/><path d="M700.53,311.34V320h-2V308.6h2.63l5,8.18V308.6h2V320h-2.28Z"/><path d="M714.39,320h-3.82V308.6h3.84c3.75,0,6,2,6,5.75,0,2.77-1.32,4.6-3.52,5.32A7.69,7.69,0,0,1,714.39,320Zm-1.61-1.72h1.56c2.68,0,3.75-1.57,3.75-4.08s-1.15-3.92-3.78-3.92h-1.53Z"/><path d="M724,317.4l-.83,2.64h-2.09l3.84-11.44h2.86L731.57,320H729.3l-.85-2.64Zm.51-1.58H728l-1.75-5.43Z"/><path d="M735.35,315.43V320h-2.21V308.6h4.13c2.29,0,4.29.85,4.29,3.44a3,3,0,0,1-2.53,3.07l3.21,4.93h-2.38l-3-4.61Zm0-1.53h1.86c1.28,0,2.2-.48,2.2-1.87s-1-1.73-2.2-1.73h-1.86Z"/><path d="M747.62,320h-3.83V308.6h3.85c3.75,0,6,2,6,5.75,0,2.77-1.33,4.6-3.52,5.32A7.78,7.78,0,0,1,747.62,320ZM746,318.32h1.56c2.68,0,3.75-1.57,3.75-4.08s-1.15-3.92-3.79-3.92H746Z"/><path d="M670,336.6l-.84,2.64h-2.09l3.85-11.44h2.86l3.82,11.44h-2.28l-.85-2.64Zm.5-1.58H674l-1.74-5.43Z"/><path d="M683.43,339.4c-3,0-4.55-1.59-4.55-4.52V327.8h2.22v6.91c0,1.7.39,2.93,2.33,2.93s2.49-1.27,2.49-3.05V327.8h2.2v6.95a4.68,4.68,0,0,1-1.19,3.46A4.8,4.8,0,0,1,683.43,339.4Z"/><path d="M694.33,339.4c-2.06,0-3.91-.74-4.54-2.86l1.81-.78a2.62,2.62,0,0,0,2.73,2c1.06,0,2.16-.56,2.16-1.73,0-2.92-6.42-.37-6.42-5.09,0-2.18,2-3.31,4-3.31a4.22,4.22,0,0,1,4.22,2.53l-1.7.74a2.73,2.73,0,0,0-2.52-1.62c-1,0-2,.39-2,1.49,0,2.88,6.46.32,6.46,5.07a3.45,3.45,0,0,1-2.7,3.31A5.13,5.13,0,0,1,694.33,339.4Z"/><path d="M704.81,329.53v9.71H702.6v-9.71h-3.19V327.8H708v1.73Z"/><path d="M711.78,334.63v4.61h-2.21V327.8h4.13c2.29,0,4.29.85,4.29,3.44a3,3,0,0,1-2.53,3.07l3.21,4.93h-2.38l-3-4.61Zm0-1.53h1.86c1.28,0,2.2-.48,2.2-1.87s-1-1.73-2.2-1.73h-1.86Z"/><path d="M722.25,336.6l-.83,2.64h-2.09l3.85-11.44H726l3.82,11.44h-2.27l-.85-2.64Zm.51-1.58h3.48l-1.74-5.43Z"/><path d="M738.68,337.52v1.72h-7.26V327.8h2.22v9.72Z"/><path d="M742.6,327.8v11.44h-2.21V327.8Z"/><path d="M747.16,336.6l-.84,2.64h-2.08l3.84-11.44h2.86l3.82,11.44h-2.27l-.85-2.64Zm.51-1.58h3.47l-1.74-5.43Z"/><path d="M700.76,360.81H699a11,11,0,0,1,0-14.75h1.72a11.88,11.88,0,0,0-2.59,7.37,11.35,11.35,0,0,0,1.49,5.68A16.89,16.89,0,0,0,700.76,360.81Z"/><path d="M705.69,358.6c-1.93,0-3.78-.89-4.25-2.86l1.67-.74a2.49,2.49,0,0,0,2.4,2c1.2,0,2.29-.51,2.29-1.84,0-1.89-1.49-1.84-2.94-1.84v-1.54c1.3,0,2.73.07,2.73-1.66a1.66,1.66,0,0,0-1.86-1.6,2.22,2.22,0,0,0-2.28,1.76l-1.61-.71a3.92,3.92,0,0,1,4-2.7c1.88,0,3.82,1,3.82,3.09a2.55,2.55,0,0,1-1.89,2.48,2.64,2.64,0,0,1,2.22,2.75,3.22,3.22,0,0,1-2.73,3.24A6.21,6.21,0,0,1,705.69,358.6Z"/><path d="M716,358.6c-3.58,0-4.54-2.54-4.54-5.64s1.3-6.12,4.77-6.12a3.93,3.93,0,0,1,3.84,2.21l-1.69.74a2.15,2.15,0,0,0-2.1-1.27c-2.07,0-2.61,2.29-2.64,3.94A3.14,3.14,0,0,1,716.5,351a3.77,3.77,0,0,1,1.2,7.35A5.38,5.38,0,0,1,716,358.6Zm0-1.6a2.26,2.26,0,1,0-2.19-2.36,2.23,2.23,0,0,0,1.25,2.18A2.35,2.35,0,0,0,716,357Z"/><path d="M722.87,360.78h-1.71a12.13,12.13,0,0,0,0-14.75h1.71a11.24,11.24,0,0,1,2.77,7.37,10.68,10.68,0,0,1-.72,3.93A12.3,12.3,0,0,1,722.87,360.78Z"/><rect class="cls-3" x="905.13" y="224.07" width="186.4" height="34.99" rx="4"/><path class="cls-1" d="M931.36,246.81a5.6,5.6,0,0,1-5.86-5.93,5.67,5.67,0,0,1,5.86-5.83,5.93,5.93,0,0,1,2.36,11.32A6.24,6.24,0,0,1,931.36,246.81Zm0-1.76c2.46,0,3.49-2,3.49-4.2s-1.16-4.06-3.52-4.06c-2.54,0-3.55,1.93-3.55,4.2a4,4,0,0,0,2,3.73A3.39,3.39,0,0,0,931.39,245.05Z"/><path class="cls-1" d="M941.26,242v4.61H939V235.22h4.14c2.29,0,4.29.84,4.29,3.43a3,3,0,0,1-2.53,3.07l3.2,4.93h-2.37l-3-4.61Zm0-1.53h1.85c1.28,0,2.21-.48,2.21-1.87s-1-1.73-2.21-1.73h-1.85Z"/><path class="cls-1" d="M954.85,246.81c-3.67,0-5.81-2.37-5.81-5.93a5.59,5.59,0,0,1,5.81-5.84,4.85,4.85,0,0,1,4.81,2.94l-1.85.8a3,3,0,0,0-3-2c-2.46,0-3.5,2.1-3.5,4.26s1,4.09,3.54,4.09a4.63,4.63,0,0,0,3-1v-1.75h-2.85V240.7h4.86v4.09a6.66,6.66,0,0,1-3.67,1.9A8.18,8.18,0,0,1,954.85,246.81Z"/><path class="cls-1" d="M963.52,244l-.84,2.64H960.6l3.84-11.43h2.86l3.82,11.43h-2.27L968,244Zm.51-1.58h3.47L965.76,237Z"/><path class="cls-1" d="M974.68,238v8.7h-2V235.22h2.63l5,8.17v-8.17h2v11.43H980Z"/><path class="cls-1" d="M987,235.22v11.43h-2.21V235.22Z"/><path class="cls-1" d="M997.35,244.91v1.74h-8.78v-.86l6.08-8.85h-5.47v-1.72h8.34v.86l-5.94,8.83Z"/><path class="cls-1" d="M1001.22,244l-.84,2.64h-2.09l3.85-11.43H1005l3.82,11.43h-2.28l-.85-2.64Zm.5-1.58h3.48l-1.74-5.43Z"/><path class="cls-1" d="M1014.34,236.94v9.71h-2.2v-9.71h-3.2v-1.72h8.59v1.72Z"/><path class="cls-1" d="M1021.39,235.22v11.43h-2.21V235.22Z"/><path class="cls-1" d="M1029.19,246.81a5.6,5.6,0,0,1-5.85-5.93,5.66,5.66,0,0,1,5.85-5.83,5.93,5.93,0,0,1,2.36,11.32A6.2,6.2,0,0,1,1029.19,246.81Zm0-1.76c2.46,0,3.5-2,3.5-4.2s-1.17-4.06-3.53-4.06c-2.53,0-3.55,1.93-3.55,4.2a4,4,0,0,0,2,3.73A3.45,3.45,0,0,0,1029.22,245.05Z"/><path class="cls-1" d="M1038.88,238v8.7h-2V235.22h2.62l5,8.17v-8.17h2v11.43h-2.29Z"/><path class="cls-1" d="M1056.44,249h-1.72a10.94,10.94,0,0,1,0-14.75h1.72a11.9,11.9,0,0,0-2.59,7.38,11.34,11.34,0,0,0,1.48,5.67A17,17,0,0,0,1056.44,249Z"/><path class="cls-1" d="M1061.36,246.81c-1.92,0-3.77-.88-4.25-2.86l1.68-.73a2.48,2.48,0,0,0,2.4,2c1.2,0,2.28-.51,2.28-1.84,0-1.89-1.48-1.84-2.93-1.84V240c1.3,0,2.72.06,2.72-1.67a1.66,1.66,0,0,0-1.86-1.6,2.22,2.22,0,0,0-2.27,1.76l-1.62-.71a3.94,3.94,0,0,1,4-2.7c1.88,0,3.81,1,3.81,3.09a2.54,2.54,0,0,1-1.89,2.48,2.65,2.65,0,0,1,2.23,2.75,3.22,3.22,0,0,1-2.73,3.24A6.23,6.23,0,0,1,1061.36,246.81Z"/><path class="cls-1" d="M1068.35,249h-1.71a12.13,12.13,0,0,0,0-14.75h1.71a11.24,11.24,0,0,1,2.77,7.37,10.68,10.68,0,0,1-.72,3.93A11.93,11.93,0,0,1,1068.35,249Z"/><rect class="cls-3" x="905.13" y="285.73" width="186.4" height="34.99" rx="4"/><path class="cls-1" d="M973,308.31h-3.83V296.88H973c3.75,0,6,1.95,6,5.74,0,2.77-1.33,4.6-3.53,5.33A8,8,0,0,1,973,308.31Zm-1.61-1.72h1.55c2.68,0,3.75-1.57,3.75-4.08s-1.15-3.92-3.78-3.92h-1.52Z"/><path class="cls-1" d="M986.1,308.47a5.6,5.6,0,0,1-5.85-5.93,5.66,5.66,0,0,1,5.85-5.83A5.93,5.93,0,0,1,988.46,308,6.2,6.2,0,0,1,986.1,308.47Zm0-1.76c2.46,0,3.49-2,3.49-4.2s-1.16-4.06-3.52-4.06c-2.53,0-3.55,1.93-3.55,4.2a4,4,0,0,0,2,3.73A3.42,3.42,0,0,0,986.13,306.71Z"/><path class="cls-1" d="M997.61,308.31h-3.82V296.88h3.84c3.75,0,6,1.95,6,5.74,0,2.77-1.32,4.6-3.52,5.33A8,8,0,0,1,997.61,308.31ZM996,306.59h1.56c2.68,0,3.75-1.57,3.75-4.08s-1.15-3.92-3.78-3.92H996Z"/><path class="cls-1" d="M1013,310.68h-1.72a11,11,0,0,1,0-14.75H1013a11.9,11.9,0,0,0-2.59,7.37,11.45,11.45,0,0,0,1.48,5.68A19,19,0,0,0,1013,310.68Z"/><path class="cls-1" d="M1018.45,308.47c-3.58,0-4.55-2.54-4.55-5.64s1.31-6.12,4.78-6.12a3.94,3.94,0,0,1,3.84,2.21l-1.7.74a2.15,2.15,0,0,0-2.1-1.27c-2.06,0-2.61,2.29-2.64,3.94a3.15,3.15,0,0,1,2.85-1.47,3.77,3.77,0,0,1,1.2,7.35A5.38,5.38,0,0,1,1018.45,308.47Zm0-1.59a2.26,2.26,0,1,0-2.19-2.37,2.22,2.22,0,0,0,1.25,2.19A2.5,2.5,0,0,0,1018.42,306.88Z"/><path class="cls-1" d="M1025.29,310.65h-1.71a12.13,12.13,0,0,0,0-14.75h1.71a11.25,11.25,0,0,1,2.78,7.37,10.88,10.88,0,0,1-.72,3.93A12.2,12.2,0,0,1,1025.29,310.65Z"/><rect class="cls-3" x="905.13" y="347.39" width="186.4" height="34.99" rx="4"/><path class="cls-1" d="M952.75,358.53V370h-2.21V358.53Z"/><path class="cls-1" d="M957.28,361.27V370h-2V358.53h2.62l5,8.18v-8.18h2V370h-2.28Z"/><path class="cls-1" d="M971.82,360.26V370h-2.21v-9.71h-3.19v-1.73H975v1.73Z"/><path class="cls-1" d="M984.42,368.25V370h-7.85V358.53h7.58v1.73h-5.36v3.07h4.36V365h-4.36v3.29Z"/><path class="cls-1" d="M988.39,365.36V370h-2.21V358.53h4.13c2.29,0,4.29.85,4.29,3.44a3,3,0,0,1-2.53,3.07l3.21,4.93H992.9l-3-4.61Zm0-1.53h1.86c1.28,0,2.2-.48,2.2-1.87s-1-1.73-2.2-1.73h-1.86Z"/><path class="cls-1" d="M998.83,361.27V370h-2V358.53h2.63l5,8.18v-8.18h2V370h-2.28Z"/><path class="cls-1" d="M1016.71,368.25V370h-7.85V358.53h7.58v1.73h-5.36v3.07h4.36V365h-4.36v3.29Z"/><path class="cls-1" d="M1023,360.26V370h-2.2v-9.71h-3.2v-1.73h8.59v1.73Z"/><path class="cls-1" d="M1035.26,372.34h-1.72a10.94,10.94,0,0,1,0-14.75h1.72a11.88,11.88,0,0,0-2.59,7.37,11.35,11.35,0,0,0,1.48,5.68A17,17,0,0,0,1035.26,372.34Z"/><path class="cls-1" d="M1040.49,358.53V370h-2.2v-9.28l-2.41,1.52v-1.9l2.68-1.78Z"/><path class="cls-1" d="M1044,372.31h-1.71a12.13,12.13,0,0,0,0-14.75H1044a11.25,11.25,0,0,1,2.78,7.37,10.88,10.88,0,0,1-.72,3.93A12.2,12.2,0,0,1,1044,372.31Z"/><rect class="cls-5" x="249.6" y="623.53" width="107.11" height="62.91" rx="4"/><path d="M267,640.63v10.29h-2V640.63Z"/><path d="M271.08,643.09v7.83h-1.8V640.63h2.37l4.47,7.35v-7.35h1.79v10.29h-2.05Z"/><path d="M284.17,642.18v8.74h-2v-8.74h-2.88v-1.55H287v1.55Z"/><path d="M295.51,649.37v1.55h-7.06V640.63h6.82v1.55h-4.82v2.76h3.92v1.47h-3.92v3Z"/><path d="M299.09,646.77v4.15h-2V640.63h3.72c2.06,0,3.86.75,3.86,3.09a2.71,2.71,0,0,1-2.27,2.76l2.89,4.44h-2.14l-2.68-4.15Zm0-1.38h1.67c1.15,0,2-.43,2-1.68s-.9-1.56-2-1.56h-1.67Z"/><path d="M308.68,646.73v4.19h-2V640.63h6.76v1.55h-4.76v3h3.8v1.51Z"/><path d="M316.39,648.55l-.76,2.37h-1.87l3.46-10.29h2.57l3.44,10.29h-2.05l-.76-2.37Zm.45-1.43H320l-1.57-4.88Z"/><path d="M329,651.06c-3.34,0-5.13-2.13-5.13-5.34a5,5,0,0,1,5.07-5.26,4.55,4.55,0,0,1,4.41,2.8l-1.64.69A2.87,2.87,0,0,0,329,642c-2.18,0-3.07,1.89-3.07,3.8s1,3.65,3.12,3.65a2.94,2.94,0,0,0,2.8-2.06l1.58.68a4.25,4.25,0,0,1-3,2.78A5.52,5.52,0,0,1,329,651.06Z"/><path d="M342,649.37v1.55h-7.06V640.63h6.82v1.55h-4.82v2.76h3.92v1.47h-3.92v3Z"/><path d="M298.85,670.34H297.3a9.88,9.88,0,0,1,0-13.29h1.55a10.7,10.7,0,0,0-2.34,6.64,10.23,10.23,0,0,0,1.34,5.11A16.76,16.76,0,0,0,298.85,670.34Z"/><path d="M306.76,666.68v1.52h-7.55v-.76l3.92-3.68a4.3,4.3,0,0,0,1.58-2.92,1.4,1.4,0,0,0-1.54-1.56c-1.16,0-1.77.94-2.05,2l-1.53-.66a3.47,3.47,0,0,1,3.66-2.81c1.92,0,3.43,1,3.43,3a5.17,5.17,0,0,1-2,3.72l-2.44,2.15Z"/><path d="M309.07,670.31h-1.55a10.88,10.88,0,0,0,0-13.28h1.55a10.13,10.13,0,0,1,2.49,6.64,9.83,9.83,0,0,1-.64,3.53A11,11,0,0,1,309.07,670.31Z"/><rect class="cls-5" x="365.66" y="623.53" width="67.34" height="62.91" rx="4"/><path d="M393.29,648.55l-.75,2.37h-1.88l3.46-10.29h2.58l3.44,10.29h-2.05l-.77-2.37Zm.46-1.43h3.13l-1.57-4.88Z"/><path d="M405.11,642.18v8.74h-2v-8.74h-2.87v-1.55H408v1.55Z"/><path d="M394.77,670.34h-1.55a9.88,9.88,0,0,1,0-13.29h1.55a10.76,10.76,0,0,0-2.33,6.64,10.22,10.22,0,0,0,1.33,5.11A16.76,16.76,0,0,0,394.77,670.34Z"/><path d="M399.2,668.34a3.62,3.62,0,0,1-3.82-2.57l1.5-.66a2.24,2.24,0,0,0,2.17,1.77c1.08,0,2.05-.46,2.05-1.66,0-1.7-1.33-1.65-2.64-1.65v-1.39c1.17,0,2.45.06,2.45-1.5a1.48,1.48,0,0,0-1.67-1.44,2,2,0,0,0-2.05,1.58l-1.45-.63a3.53,3.53,0,0,1,3.63-2.43c1.69,0,3.44.88,3.44,2.78a2.3,2.3,0,0,1-1.71,2.23,2.39,2.39,0,0,1,2,2.48,2.91,2.91,0,0,1-2.46,2.92A5.81,5.81,0,0,1,399.2,668.34Z"/><path d="M405.49,670.31H404A10.92,10.92,0,0,0,404,657h1.54a10.14,10.14,0,0,1,2.5,6.64,9.62,9.62,0,0,1-.65,3.53A11,11,0,0,1,405.49,670.31Z"/><rect class="cls-5" x="442.84" y="623.53" width="67.34" height="62.91" rx="4"/><path d="M473,640.63v10.29h-2V640.63Z"/><path d="M477.31,647v3.89h-2V640.63h3.57c2.17,0,3.85.87,3.85,3.25,0,2.59-2,3.17-4.25,3.17h-1.18Zm0-1.43h1.57c1.23,0,1.92-.49,1.92-1.78s-.74-1.68-1.92-1.68h-1.57Z"/><path d="M471.89,670.34h-1.56a9.88,9.88,0,0,1,0-13.29h1.56a10.7,10.7,0,0,0-2.34,6.64,10.12,10.12,0,0,0,1.34,5.11A14.9,14.9,0,0,0,471.89,670.34Z"/><path d="M479.27,666v2.17h-1.94V666h-5.14v-.75l4.58-7.37h2.5v6.66h1.37V666Zm-5-1.46h3.08v-5.18Z"/><path d="M482.73,670.31h-1.54a10.92,10.92,0,0,0,0-13.28h1.54a10.09,10.09,0,0,1,2.5,6.64,9.62,9.62,0,0,1-.65,3.53A10.54,10.54,0,0,1,482.73,670.31Z"/><rect class="cls-5" x="519.31" y="623.53" width="67.34" height="62.91" rx="4"/><path d="M537.68,640.63v10.29h-2V640.63Z"/><path d="M544.57,651.06c-3.35,0-5.13-2.13-5.13-5.34a5,5,0,0,1,5.06-5.26,4.56,4.56,0,0,1,4.42,2.8l-1.64.69a2.89,2.89,0,0,0-2.69-1.93c-2.18,0-3.06,1.89-3.06,3.8s1,3.65,3.11,3.65a2.93,2.93,0,0,0,2.8-2.06l1.58.68a4.23,4.23,0,0,1-3,2.78A5.45,5.45,0,0,1,544.57,651.06Z"/><path d="M552.33,643.07v7.85h-1.8V640.63H553l3,7.5,2.93-7.5h2.47v10.29h-1.84v-7.85l-3.23,7.85h-.89Z"/><path d="M565.61,647v3.89h-2V640.63h3.57c2.18,0,3.85.87,3.85,3.25,0,2.59-2,3.17-4.25,3.17h-1.17Zm0-1.43h1.56c1.23,0,1.92-.49,1.92-1.78s-.74-1.68-1.92-1.68h-1.56Z"/><path d="M548.52,670.34H547a9.88,9.88,0,0,1,0-13.29h1.56a10.7,10.7,0,0,0-2.34,6.64,10.23,10.23,0,0,0,1.34,5.11A14.9,14.9,0,0,0,548.52,670.34Z"/><path d="M552.84,668.34c-1.67,0-3.16-.66-3.59-2.37l1.53-.65a1.83,1.83,0,0,0,2,1.5,2,2,0,0,0,0-4.05,2.4,2.4,0,0,0-2,.88h-1.07l.1-5.74h6.33v1.54h-4.79l0,2.76a2.91,2.91,0,0,1,2.23-.87,3.13,3.13,0,0,1,3.19,3.45,3.32,3.32,0,0,1-2.32,3.31A4.6,4.6,0,0,1,552.84,668.34Z"/><path d="M559,670.31H557.5a10.92,10.92,0,0,0,0-13.28H559a10.14,10.14,0,0,1,2.5,6.64,9.62,9.62,0,0,1-.65,3.53A11,11,0,0,1,559,670.31Z"/><rect class="cls-5" x="596.21" y="623.53" width="67.34" height="62.91" rx="4"/><path d="M622.09,642.18v8.74h-2v-8.74h-2.87v-1.55H625v1.55Z"/><path d="M633.43,649.37v1.55h-7.06V640.63h6.82v1.55h-4.82v2.76h3.92v1.47h-3.92v3Z"/><path d="M637,647v3.89h-2V640.63h3.57c2.18,0,3.85.87,3.85,3.25,0,2.59-2,3.17-4.25,3.17H637Zm0-1.43h1.56c1.23,0,1.92-.49,1.92-1.78s-.74-1.68-1.92-1.68H637Z"/><path d="M625.15,670.34H623.6a9.88,9.88,0,0,1,0-13.29h1.55a10.76,10.76,0,0,0-2.33,6.64,10.12,10.12,0,0,0,1.34,5.11A14.77,14.77,0,0,0,625.15,670.34Z"/><path d="M630.06,668.34c-3.23,0-4.1-2.28-4.1-5.08s1.18-5.5,4.3-5.5a3.54,3.54,0,0,1,3.46,2l-1.53.66a1.92,1.92,0,0,0-1.89-1.14c-1.86,0-2.35,2.06-2.38,3.54a2.86,2.86,0,0,1,2.56-1.32,3.39,3.39,0,0,1,1.09,6.62A4.64,4.64,0,0,1,630.06,668.34Zm0-1.43a2,2,0,1,0-2-2.13,2,2,0,0,0,1.12,2A2.26,2.26,0,0,0,630,666.91Z"/><path d="M636.21,670.31h-1.54a10.92,10.92,0,0,0,0-13.28h1.54a10.09,10.09,0,0,1,2.5,6.64,9.62,9.62,0,0,1-.65,3.53A11,11,0,0,1,636.21,670.31Z"/><rect class="cls-5" x="672.55" y="623.53" width="67.34" height="62.91" rx="4"/><path d="M696.44,651.06c-2.68,0-4.1-1.42-4.1-4.07v-6.36h2v6.21c0,1.54.35,2.64,2.11,2.64s2.23-1.15,2.23-2.75v-6.1h2v6.25a4.17,4.17,0,0,1-1.08,3.11A4.25,4.25,0,0,1,696.44,651.06Z"/><path d="M706.23,650.92h-3.45V640.63h3.47c3.37,0,5.38,1.75,5.38,5.17a4.61,4.61,0,0,1-3.17,4.79A7.1,7.1,0,0,1,706.23,650.92Zm-1.45-1.55h1.4c2.41,0,3.38-1.42,3.38-3.67s-1-3.53-3.41-3.53h-1.37Z"/><path d="M715.3,647v3.89h-2V640.63h3.58c2.17,0,3.84.87,3.84,3.25,0,2.59-2,3.17-4.24,3.17H715.3Zm0-1.43h1.56c1.23,0,1.92-.49,1.92-1.78s-.74-1.68-1.92-1.68H715.3Z"/><path d="M702.12,670.34h-1.56a9.9,9.9,0,0,1,0-13.29h1.56a10.7,10.7,0,0,0-2.34,6.64,10.23,10.23,0,0,0,1.34,5.11A16.76,16.76,0,0,0,702.12,670.34Z"/><path d="M710,658.69l-3.79,9.51h-2.05l3.52-8.7h-5v-1.59H710Z"/><path d="M711.93,670.31h-1.55a10.88,10.88,0,0,0,0-13.28h1.55a10.13,10.13,0,0,1,2.49,6.64,9.62,9.62,0,0,1-.65,3.53A10.73,10.73,0,0,1,711.93,670.31Z"/><rect class="cls-5" x="748.89" y="623.53" width="67.34" height="62.91" rx="4"/><path d="M776.49,649.37v1.55h-7.06V640.63h6.82v1.55h-4.82v2.76h3.92v1.47h-3.92v3Z"/><path d="M782.71,651.06c-3.3,0-5.23-2.13-5.23-5.34a5,5,0,0,1,5.23-5.26,4.37,4.37,0,0,1,4.33,2.66l-1.67.71a2.68,2.68,0,0,0-2.66-1.81c-2.21,0-3.16,1.89-3.16,3.83s1,3.69,3.2,3.69a4.16,4.16,0,0,0,2.71-.94V647H782.9v-1.47h4.37v3.69A6.06,6.06,0,0,1,784,651,7.56,7.56,0,0,1,782.71,651.06Z"/><path d="M791,647v3.89h-2V640.63h3.57c2.18,0,3.85.87,3.85,3.25,0,2.59-2,3.17-4.25,3.17H791Zm0-1.43h1.56c1.23,0,1.92-.49,1.92-1.78s-.74-1.68-1.92-1.68H791Z"/><path d="M778,670.34h-1.56a9.9,9.9,0,0,1,0-13.29H778a10.7,10.7,0,0,0-2.34,6.64A10.23,10.23,0,0,0,777,668.8,14.9,14.9,0,0,0,778,670.34Z"/><path d="M782.58,668.34c-1.88,0-3.9-.9-3.9-3.05a2.64,2.64,0,0,1,1.93-2.6,2.23,2.23,0,0,1-1.53-2.17c0-1.84,1.86-2.76,3.5-2.76s3.51.89,3.51,2.75a2.33,2.33,0,0,1-1.55,2.16,2.61,2.61,0,0,1,1.93,2.56,3,3,0,0,1-2.47,2.93A5.58,5.58,0,0,1,782.58,668.34Zm0-1.46a1.73,1.73,0,0,0,1.9-1.77,1.7,1.7,0,0,0-1.88-1.73,1.76,1.76,0,0,0-1.94,1.76,1.64,1.64,0,0,0,1.18,1.62A2.25,2.25,0,0,0,782.58,666.88Zm0-4.78a1.41,1.41,0,0,0,1.57-1.47,1.62,1.62,0,0,0-3.23,0,1.4,1.4,0,0,0,1,1.36A2.19,2.19,0,0,0,782.62,662.1Z"/><path d="M788.72,670.31h-1.54a10.92,10.92,0,0,0,0-13.28h1.54a10.14,10.14,0,0,1,2.5,6.64,9.62,9.62,0,0,1-.65,3.53A11,11,0,0,1,788.72,670.31Z"/><rect class="cls-5" x="825.23" y="623.53" width="67.34" height="62.91" rx="4"/><path d="M842.89,651.06c-3.34,0-5.13-2.13-5.13-5.34a5,5,0,0,1,5.07-5.26,4.57,4.57,0,0,1,4.42,2.8l-1.64.69a2.89,2.89,0,0,0-2.69-1.93c-2.18,0-3.07,1.89-3.07,3.8s1,3.65,3.12,3.65a2.93,2.93,0,0,0,2.8-2.06l1.58.68a4.25,4.25,0,0,1-3,2.78A5.47,5.47,0,0,1,842.89,651.06Z"/><path d="M850.66,643.07v7.85h-1.81V640.63h2.52l3,7.5,2.94-7.5h2.47v10.29h-1.85v-7.85l-3.23,7.85h-.88Z"/><path d="M866.69,651.06a5.07,5.07,0,1,1,2.12-.39A5.59,5.59,0,0,1,866.69,651.06Zm0-1.58c2.21,0,3.14-1.81,3.14-3.78s-1.05-3.65-3.17-3.65c-2.28,0-3.2,1.73-3.2,3.77a3.59,3.59,0,0,0,1.84,3.36A3.06,3.06,0,0,0,866.72,649.48Z"/><path d="M877.42,642.18v8.74h-2v-8.74h-2.87v-1.55h7.73v1.55Z"/><path d="M854.16,670.34H852.6a9.9,9.9,0,0,1,0-13.29h1.56a10.69,10.69,0,0,0-2.33,6.64,10.22,10.22,0,0,0,1.33,5.11A16.76,16.76,0,0,0,854.16,670.34Z"/><path d="M858.68,668.33a3.63,3.63,0,0,1-3.66-2.07l1.53-.67a2.06,2.06,0,0,0,2.09,1.23c1.9,0,2.23-2,2.26-3.48a2.86,2.86,0,0,1-2.55,1.28,3.22,3.22,0,0,1-3.45-3.35c0-2.27,1.71-3.53,3.87-3.53,3.32,0,4.07,2.52,4.07,5.32,0,2.28-.7,4.4-2.75,5.07A4.71,4.71,0,0,1,858.68,668.33Zm.08-5.07a1.84,1.84,0,0,0,2-1.9,1.93,1.93,0,0,0-2-2.16,1.86,1.86,0,0,0-1.92,2,1.94,1.94,0,0,0,1.1,1.89A2,2,0,0,0,858.76,663.26Z"/><path d="M865.23,670.31h-1.54a10.92,10.92,0,0,0,0-13.28h1.54a10.09,10.09,0,0,1,2.5,6.64,9.62,9.62,0,0,1-.65,3.53A11,11,0,0,1,865.23,670.31Z"/><rect class="cls-5" x="1036.08" y="623.53" width="67.34" height="62.91" rx="4"/><path d="M1053.39,651.06c-1.86,0-3.53-.66-4.09-2.57l1.63-.7a2.36,2.36,0,0,0,2.46,1.81c.95,0,1.94-.51,1.94-1.56,0-2.63-5.78-.33-5.78-4.58,0-2,1.82-3,3.61-3a3.79,3.79,0,0,1,3.8,2.28l-1.53.66a2.45,2.45,0,0,0-2.27-1.46c-.86,0-1.76.35-1.76,1.34,0,2.59,5.82.29,5.82,4.57a3.11,3.11,0,0,1-2.43,3A4.75,4.75,0,0,1,1053.39,651.06Z"/><path d="M1060.73,643.09v7.83h-1.8V640.63h2.37l4.47,7.35v-7.35h1.79v10.29h-2Z"/><path d="M1071.56,643.07v7.85h-1.8V640.63h2.52l3,7.5,2.93-7.5h2.47v10.29h-1.84v-7.85l-3.23,7.85h-.89Z"/><path d="M1084.84,647v3.89h-2V640.63h3.58c2.17,0,3.85.87,3.85,3.25,0,2.59-2,3.17-4.25,3.17h-1.18Zm0-1.43h1.56c1.24,0,1.93-.49,1.93-1.78s-.74-1.68-1.93-1.68h-1.56Z"/><path d="M1063.65,670.34h-1.55a9.88,9.88,0,0,1,0-13.29h1.55a10.69,10.69,0,0,0-2.33,6.64,10.22,10.22,0,0,0,1.33,5.11A16.76,16.76,0,0,0,1063.65,670.34Z"/><path d="M1068.36,657.91V668.2h-2v-8.35l-2.16,1.37V659.5l2.41-1.59Z"/><path d="M1074.31,657.91V668.2h-2v-8.35l-2.17,1.37V659.5l2.41-1.59Z"/><path d="M1077.45,670.31h-1.54a10.92,10.92,0,0,0,0-13.28h1.54a10.13,10.13,0,0,1,2.49,6.64,9.62,9.62,0,0,1-.64,3.53A11,11,0,0,1,1077.45,670.31Z"/><rect class="cls-5" x="901.56" y="623.53" width="124.51" height="62.91" rx="4"/><path d="M915.77,642.18v8.74h-2v-8.74h-2.88v-1.55h7.73v1.55Z"/><path d="M922.05,646.77v4.15h-2V640.63h3.72c2.07,0,3.87.75,3.87,3.09a2.72,2.72,0,0,1-2.28,2.76l2.89,4.44h-2.14l-2.67-4.15Zm0-1.38h1.67c1.15,0,2-.43,2-1.68s-.9-1.56-2-1.56h-1.67Z"/><path d="M931.47,648.55l-.75,2.37h-1.88l3.46-10.29h2.58l3.44,10.29h-2.05l-.76-2.37Zm.46-1.43h3.13l-1.57-4.88Z"/><path d="M941.52,643.09v7.83h-1.8V640.63h2.37l4.47,7.35v-7.35h1.79v10.29H946.3Z"/><path d="M954,651.06c-1.86,0-3.52-.66-4.09-2.57l1.64-.7A2.34,2.34,0,0,0,954,649.6c1,0,1.94-.51,1.94-1.56,0-2.63-5.78-.33-5.78-4.58,0-2,1.83-3,3.61-3a3.79,3.79,0,0,1,3.8,2.28l-1.52.66a2.47,2.47,0,0,0-2.28-1.46c-.85,0-1.75.35-1.75,1.34,0,2.59,5.81.29,5.81,4.57a3.11,3.11,0,0,1-2.42,3A4.82,4.82,0,0,1,954,651.06Z"/><path d="M961.36,643.07v7.85h-1.8V640.63h2.51l3,7.5,2.93-7.5h2.47v10.29h-1.85v-7.85l-3.22,7.85h-.89Z"/><path d="M974.7,640.63v10.29h-2V640.63Z"/><path d="M980.44,651.06c-1.86,0-3.52-.66-4.09-2.57l1.64-.7a2.34,2.34,0,0,0,2.45,1.81c1,0,1.94-.51,1.94-1.56,0-2.63-5.78-.33-5.78-4.58,0-2,1.83-3,3.61-3a3.79,3.79,0,0,1,3.8,2.28l-1.52.66a2.47,2.47,0,0,0-2.28-1.46c-.85,0-1.75.35-1.75,1.34,0,2.59,5.81.29,5.81,4.57a3.11,3.11,0,0,1-2.42,3A4.82,4.82,0,0,1,980.44,651.06Z"/><path d="M989.34,651.06c-1.85,0-3.52-.66-4.08-2.57l1.63-.7a2.34,2.34,0,0,0,2.45,1.81c1,0,1.94-.51,1.94-1.56,0-2.63-5.78-.33-5.78-4.58,0-2,1.83-3,3.62-3a3.81,3.81,0,0,1,3.8,2.28l-1.53.66a2.45,2.45,0,0,0-2.27-1.46c-.86,0-1.76.35-1.76,1.34,0,2.59,5.82.29,5.82,4.57a3.12,3.12,0,0,1-2.43,3A4.82,4.82,0,0,1,989.34,651.06Z"/><path d="M997,640.63v10.29h-2V640.63Z"/><path d="M1004,651.06a5,5,0,0,1-5.26-5.34,5.09,5.09,0,0,1,5.26-5.24,5.34,5.34,0,0,1,2.13,10.19A5.61,5.61,0,0,1,1004,651.06Zm0-1.58c2.22,0,3.15-1.81,3.15-3.78s-1-3.65-3.18-3.65-3.19,1.73-3.19,3.77a3.57,3.57,0,0,0,1.84,3.36A3,3,0,0,0,1004,649.48Z"/><path d="M1012.69,643.09v7.83h-1.8V640.63h2.37l4.47,7.35v-7.35h1.79v10.29h-2Z"/><path d="M957.47,670.34h-1.56a9.88,9.88,0,0,1,0-13.29h1.56a10.7,10.7,0,0,0-2.34,6.64,10.12,10.12,0,0,0,1.34,5.11A14.9,14.9,0,0,0,957.47,670.34Z"/><path d="M962.17,657.91V668.2h-2v-8.35L958,661.22V659.5l2.41-1.59Z"/><path d="M968.63,668.34a4.05,4.05,0,0,1-4.08-2.93,8,8,0,0,1-.32-2.61c0-2.71,1.44-5,4.4-5,3.27,0,4.38,2.69,4.38,5.52a5.73,5.73,0,0,1-1.06,3.55,3.89,3.89,0,0,1-1.36,1.11A4.46,4.46,0,0,1,968.63,668.34Zm0-1.55c2.26,0,2.36-2.35,2.36-4s-.46-3.47-2.38-3.47c-2.25,0-2.42,2.32-2.42,4a5,5,0,0,0,.49,2.34,2,2,0,0,0,1.09,1A2.24,2.24,0,0,0,968.67,666.79Z"/><path d="M975.38,670.31h-1.54a10.92,10.92,0,0,0,0-13.28h1.54a10.14,10.14,0,0,1,2.5,6.64,9.62,9.62,0,0,1-.65,3.53A11,11,0,0,1,975.38,670.31Z"/><line class="cls-6" x1="567.7" y1="119.77" x2="567.7" y2="148.22"/><polygon class="cls-7" points="559.52 141.59 560.98 140.23 567.69 147.45 574.41 140.23 575.87 141.59 567.69 150.39 559.52 141.59"/><path class="cls-6" d="M567.7,119.77V128a5,5,0,0,1-5,5H404.33a5,5,0,0,0-5,5v8.64"/><polygon class="cls-7" points="391.15 139.99 392.61 138.63 399.33 145.85 406.04 138.63 407.51 139.99 399.33 148.79 391.15 139.99"/><path class="cls-6" d="M567.7,119.77V128a5,5,0,0,0,5,5H732.11a5,5,0,0,1,5,5v8.64"/><polygon class="cls-7" points="728.93 139.99 730.39 138.63 737.11 145.85 743.82 138.63 745.29 139.99 737.11 148.79 728.93 139.99"/><path class="cls-6" d="M540.7,193.63v8.21a5,5,0,0,1-5,5H428.52a5,5,0,0,0-5,5v6.64"/><polygon class="cls-7" points="415.34 211.85 416.8 210.49 423.51 217.71 430.23 210.49 431.69 211.85 423.51 220.65 415.34 211.85"/><path class="cls-6" d="M437.76,206.84H165.24a5,5,0,0,0-5,5v6.64"/><polygon class="cls-7" points="152.06 211.85 153.52 210.49 160.24 217.71 166.95 210.49 168.41 211.85 160.24 220.65 152.06 211.85"/><path class="cls-6" d="M597.7,193.63v8.21a5,5,0,0,0,5,5H705.92a5,5,0,0,1,5,5v6.64"/><polygon class="cls-7" points="702.75 211.85 704.21 210.49 710.92 217.71 717.64 210.49 719.1 211.85 710.92 220.65 702.75 211.85"/><path class="cls-6" d="M692.9,206.84H993.33a5,5,0,0,1,5,5v6.64"/><polygon class="cls-7" points="990.15 211.85 991.62 210.49 998.33 217.71 1005.04 210.49 1006.51 211.85 998.33 220.65 990.15 211.85"/><line class="cls-8" x1="710.92" y1="263.27" x2="710.92" y2="279.61"/><polygon class="cls-7" points="702.75 272.98 704.21 271.62 710.92 278.84 717.64 271.62 719.1 272.98 710.92 281.78 702.75 272.98"/><line class="cls-8" x1="998.33" y1="263.27" x2="998.33" y2="279.61"/><polygon class="cls-7" points="990.15 272.98 991.62 271.62 998.33 278.84 1005.04 271.62 1006.51 272.98 998.33 281.78 990.15 272.98"/><line class="cls-8" x1="998.33" y1="324.79" x2="998.33" y2="341.14"/><polygon class="cls-7" points="990.15 334.51 991.62 333.15 998.33 340.37 1005.04 333.15 1006.51 334.51 998.33 343.31 990.15 334.51"/><path class="cls-8" d="M998.33,386.93v16.32a5,5,0,0,1-5,5H370.66a5,5,0,0,0-5,5v21.36"/><polygon class="cls-7" points="357.48 427.98 358.94 426.62 365.66 433.84 372.37 426.62 373.84 427.98 365.66 436.77 357.48 427.98"/><path class="cls-8" d="M365.66,483.25v35.21a5,5,0,0,1-5,5H141.11a5,5,0,0,0-5,5v13.62"/><polygon class="cls-7" points="127.93 535.45 129.4 534.09 136.11 541.31 142.82 534.09 144.29 535.45 136.11 544.25 127.93 535.45"/><line class="cls-8" x1="136.11" y1="598.72" x2="136.11" y2="626.32"/><polygon class="cls-7" points="127.93 619.7 129.4 618.33 136.11 625.56 142.82 618.33 144.29 619.7 136.11 628.49 127.93 619.7"/><line class="cls-8" x1="136.11" y1="683.78" x2="136.11" y2="711.39"/><polygon class="cls-7" points="127.93 704.76 129.4 703.4 136.11 710.62 142.82 703.4 144.29 704.76 136.11 713.56 127.93 704.76"/><path class="cls-9" d="M236.42,571.28h829.7a5,5,0,0,1,5,5v35.29"/><polygon class="cls-7" points="1063.44 605.35 1064.82 604.07 1071.12 610.85 1077.42 604.07 1078.8 605.35 1071.12 613.61 1063.44 605.35"/><path class="cls-8" d="M236.42,571.28h61.74a5,5,0,0,1,5,5v35.07"/><polygon class="cls-7" points="294.98 604.72 296.44 603.35 303.15 610.58 309.87 603.35 311.33 604.72 303.15 613.51 294.98 604.72"/><path class="cls-8" d="M332.29,571.28H394a5,5,0,0,1,5,5v35.07"/><polygon class="cls-7" points="390.85 604.72 392.31 603.35 399.03 610.58 405.74 603.35 407.21 604.72 399.03 613.51 390.85 604.72"/><path class="cls-8" d="M409.47,571.28h61.74a5,5,0,0,1,5,5v35.07"/><polygon class="cls-7" points="468.03 604.72 469.49 603.35 476.2 610.58 482.92 603.35 484.38 604.72 476.2 613.51 468.03 604.72"/><path class="cls-8" d="M485.94,571.28h61.74a5,5,0,0,1,5,5v35.07"/><polygon class="cls-7" points="544.5 604.72 545.96 603.35 552.67 610.58 559.39 603.35 560.85 604.72 552.67 613.51 544.5 604.72"/><path class="cls-8" d="M562.84,571.28h61.74a5,5,0,0,1,5,5v35.07"/><polygon class="cls-7" points="621.4 604.72 622.87 603.35 629.58 610.58 636.29 603.35 637.76 604.72 629.58 613.51 621.4 604.72"/><path class="cls-8" d="M639.18,571.28h61.74a5,5,0,0,1,5,5v35.07"/><polygon class="cls-7" points="697.74 604.72 699.2 603.35 705.92 610.58 712.63 603.35 714.1 604.72 705.92 613.51 697.74 604.72"/><path class="cls-8" d="M715.52,571.28h61.74a5,5,0,0,1,5,5v35.07"/><polygon class="cls-7" points="774.08 604.72 775.54 603.35 782.25 610.58 788.97 603.35 790.43 604.72 782.25 613.51 774.08 604.72"/><path class="cls-8" d="M791.86,571.28h61.73a5,5,0,0,1,5,5v35.07"/><polygon class="cls-7" points="850.41 604.72 851.88 603.35 858.59 610.58 865.31 603.35 866.77 604.72 858.59 613.51 850.41 604.72"/><path class="cls-8" d="M897.08,571.28h61.74a5,5,0,0,1,5,5v35.07"/><polygon class="cls-7" points="955.64 604.72 957.11 603.35 963.82 610.58 970.53 603.35 972 604.72 963.82 613.51 955.64 604.72"/><path d="M469.82,37V48h-3.19V32.3h4.71l3.92,10.29,3.82-10.29h4.62V48h-3.55V37L475.8,48h-1.61Z"/><path d="M490.88,32.3V48h-3.59V32.3Z"/><path d="M501.36,48h-6.91V32.3h6.62c2.87,0,5.22.91,5.22,4.18a3.17,3.17,0,0,1-2.56,3.36,3.43,3.43,0,0,1,3.15,3.78,3.92,3.92,0,0,1-3.41,4.19A10.26,10.26,0,0,1,501.36,48Zm-3.44-9.26h2.58c1.55,0,2.39-.45,2.39-2.12s-1.07-1.91-2.41-1.91h-2.56Zm0,6.8h2.89c1.58,0,2.55-.64,2.55-2.31s-1.18-2.2-2.73-2.2h-2.71Z"/><path d="M521.2,35.07V48h-3.58v-13h-4.25V32.3h12.08v2.77Z"/><path d="M531.31,42V48h-3.54V32.3h5.85c3.24,0,6.07,1.15,6.07,4.86a4.07,4.07,0,0,1-3.23,4.18L540.62,48h-3.79L533.06,42Zm0-2.43h2.11c1.62,0,2.79-.59,2.79-2.35S534.91,35,533.42,35h-2.11Z"/><path d="M553.91,45.26V48h-11V32.3h10.68v2.77h-7.14v3.68h5.8v2.59h-5.8v3.92Z"/><path d="M567.53,45.26V48h-11V32.3h10.69v2.77H560v3.68h5.8v2.59H560v3.92Z"/><path d="M580.74,48h-5.57V32.3h5.59c5.15,0,8.25,2.58,8.25,7.87,0,3.86-1.83,6.38-4.86,7.35A10.76,10.76,0,0,1,580.74,48Zm-2-2.77h1.89c3.44,0,4.66-2,4.66-5.21s-1.35-5-4.7-5h-1.85Z"/><path d="M595.35,32.3V48h-3.59V32.3Z"/><path d="M602.05,44.75,601,48h-3.34l5.16-15.73h4.66L612.61,48h-3.72l-1-3.28Zm.76-2.53h4.3l-2.14-7Z"/><path d="M621.62,48.27c-5.07,0-8-3.2-8-8.18a7.69,7.69,0,0,1,5.79-7.77,8.83,8.83,0,0,1,2.22-.27,10.05,10.05,0,0,1,2.18.23,6.35,6.35,0,0,1,4.53,3.87l-2.92,1.27a3.69,3.69,0,0,0-3.74-2.55c-3.18,0-4.34,2.64-4.34,5.43s1.19,5.22,4.38,5.22a6.1,6.1,0,0,0,3.78-1.17V42.19H622V39.61h6.73v5.88a9.39,9.39,0,0,1-5.12,2.62A11.72,11.72,0,0,1,621.62,48.27Z"/><path d="M634.9,42V48h-3.55V32.3h5.86c3.23,0,6.07,1.15,6.07,4.86A4.07,4.07,0,0,1,640,41.34L644.2,48h-3.78L636.65,42Zm0-2.43H637c1.63,0,2.8-.59,2.8-2.35S638.5,35,637,35h-2.1Z"/><path d="M649.58,44.75l-1,3.28h-3.34l5.16-15.73H655L660.14,48h-3.72l-1-3.28Zm.76-2.53h4.3l-2.14-7Z"/><path d="M665.58,37V48h-3.19V32.3h4.7L671,42.59l3.83-10.29h4.62V48h-3.55V37L671.56,48H670Z"/><path d="M1114.59,493.13h8.57v1.66h-8.57Z"/><path d="M1116.64,489.74h6.52v1.5h-8.57v-2l6.12-3.73h-6.12v-1.49h8.57v1.71Z"/><path d="M1115.88,478.83h7.28v1.65h-7.28v2.4h-1.29v-6.44h1.29Z"/><path d="M1121.87,469.38h1.29v5.88h-8.57v-5.68h1.29v4h2.3v-3.27h1.23v3.27h2.46Z"/><path d="M1119.71,466.4h3.45v1.66h-8.57V465c0-1.71.63-3.21,2.57-3.21a2.27,2.27,0,0,1,2.31,1.89l3.69-2.4V463l-3.45,2.22Zm-1.15,0V465c0-1-.37-1.65-1.41-1.65s-1.29.75-1.29,1.65v1.39Z"/><path d="M1116.64,458.57h6.52v1.5h-8.57v-2l6.12-3.72h-6.12v-1.5h8.57v1.71Z"/><path d="M1121.87,445.16h1.29v5.89h-8.57v-5.69h1.29v4h2.3v-3.27h1.23v3.27h2.46Z"/><path d="M1115.88,440.46h7.28v1.66h-7.28v2.39h-1.29v-6.44h1.29Z"/><path d="M1124.94,431.25v1.29a8.22,8.22,0,0,1-11.06,0v-1.29a8.87,8.87,0,0,0,5.53,1.94,8.45,8.45,0,0,0,4.25-1.11A12.1,12.1,0,0,0,1124.94,431.25Z"/><path d="M1114.59,427.33h8.57V429h-7l1.14,1.81h-1.42l-1.33-2Z"/><path d="M1124.92,424.71V426a9.09,9.09,0,0,0-11.07,0v-1.29a8.49,8.49,0,0,1,5.53-2.08,8.22,8.22,0,0,1,2.95.54A9.39,9.39,0,0,1,1124.92,424.71Z"/></svg>